<svg height="512" viewBox="0 0 64 64" width="512" xmlns="http://www.w3.org/2000/svg"><g id="Learning-Lecture-Education-Online-Book"><path d="m31 13h2v6h-2z" fill="#787680"/><path d="m34 43.87v9.13h-28v-9.13a6 6 0 0 1 3.52-5.47l4.8-2.18 2.68 2.78 3-3 3 3 2.68-2.78 4.8 2.18a5.644 5.644 0 0 1 1.52 1 5.978 5.978 0 0 1 2 4.47z" fill="#acabb1"/><path d="m23 31v4l-2 1h-2l-2-1v-4z" fill="#ffc477"/><path d="m30 24a2.006 2.006 0 0 1 -2 2h-2v-4h2a2.015 2.015 0 0 1 2 2z" fill="#ffb655"/><path d="m14 22v4h-2a2.006 2.006 0 0 1 -2-2 2.015 2.015 0 0 1 2-2z" fill="#ffb655"/><path d="m61 53v4h-3-52-3v-4h3 4 2 8 8 2 4 5 12z" fill="#a97c50"/><path d="m61 19v4h-12v-1a3 3 0 0 1 3-3z" fill="#acabb1"/><path d="m61 3v16h-9a3 3 0 0 0 -3 3v-16a3 3 0 0 1 3-3z" fill="#e6e7e8"/><path d="m6 57h52v4h-52z" fill="#a97c50"/><path d="m51 49v4h-12v-4h3 6z" fill="#898890"/><path d="m49 22v1h-12v-4h9a3 3 0 0 1 3 3z" fill="#acabb1"/><path d="m49 6v16a3 3 0 0 0 -3-3h-9v-16h9a3 3 0 0 1 3 3z" fill="#e0e0e2"/><rect fill="#898890" height="17" rx="2" width="26" x="32" y="27"/><path d="m32 13-5 1.67-7 2.33-7-2.33-5-1.67 12-4z" fill="#acabb1"/><path d="m27 19v1h-14v-1-4.33l7 2.33 7-2.33z" fill="#898890"/><path d="m25.68 36.22-2.68 2.78-3-3h1l2-1z" fill="#898890"/><path d="m20 36-3 3-2.68-2.78 2.68-1.22 2 1z" fill="#898890"/><path d="m23 31v2.32a6.958 6.958 0 0 1 -6 0v-2.32z" fill="#ffb655"/><path d="m27 20v5a5.474 5.474 0 0 1 -.08 1 6.952 6.952 0 0 1 -3.92 5.32 6.982 6.982 0 0 1 -9.92-5.32 5.474 5.474 0 0 1 -.08-1v-5z" fill="#ffc477"/><path d="m28 49h-4a3.995 3.995 0 0 0 -4 4h10v-4z" fill="#e6e7e8"/><path d="m16 49h-6v4h10a3.995 3.995 0 0 0 -4-4z" fill="#e6e7e8"/><path d="m42 39h6v10h-6z" fill="#c6c5ca"/><path d="m6 57h52v2h-52z" fill="#8b5e3c"/><path d="m16 23h2v2h-2z" fill="#ee8700"/><path d="m22 23h2v2h-2z" fill="#ee8700"/><path d="m11 43h2v6h-2z" fill="#898890"/><path d="m27 43h2v6h-2z" fill="#898890"/><g fill="#bcbec0"><path d="m40 10h6v2h-6z"/><path d="m40 6h6v2h-6z"/><path d="m52 6h6v2h-6z"/><path d="m40 14h6v2h-6z"/><path d="m52 10h6v2h-6z"/><path d="m52 14h6v2h-6z"/></g></g></svg>